# xmcd
#
# Track frame offsets:
#	182
#	13510
#	25690
#	37997
#	49747
#	62617
#	75120
#	87955
#	100510
#	112862
#	123560
#	137877
#	150512
#	164027
#	175942
#	189220
#	200007
#	214467
#	226160
#	237995
#
# Disc length: 3313 seconds
#
# Revision: 1
# Processed by: cddbd v1.4PL0 Copyright (c) Steve Scherf et al.
# Submitted via: audiograbber 1.81.03
#
DISCID=f80cef14
DTITLE=Lonnie Johnson - Me And My Crazy Self
DYEAR=1947
DGENRE=Blues
TTITLE0=You Can't Buy Love
TTITLE1=It Was All in Vain
TTITLE2=Nothing But Trouble
TTITLE3=Me and My Crazy Self
TTITLE4=What do You Want that I've got Pretty Baby
TTITLE5=I'm Guilty
TTITLE6=What a Woman
TTITLE7=Falling Rain Blues
TTITLE8=Playing Around
TTITLE9=It's Too Late To Cry
TTITLE10=Seven Long Days
TTITLE11=Why Should I Cry
TTITLE12=Friendless Blues
TTITLE13=Happy New Year Darling
TTITLE14=You Only Want Me When Your Lonely
TTITLE15=Old Fashioned Love
TTITLE16=My My Baby
TTITLE17=Just Another DAy
TTITLE18=What a Real Woman
TTITLE19=Can't Sleep Anymore
EXTD=1947-1952
EXTT0=
EXTT1=
EXTT2=
EXTT3=
EXTT4=
EXTT5=
EXTT6=
EXTT7=
EXTT8=
EXTT9=
EXTT10=
EXTT11=
EXTT12=
EXTT13=
EXTT14=
EXTT15=
EXTT16=
EXTT17=
EXTT18=
EXTT19=
PLAYORDER=
